#!OML:ASF F:\twosubjects\two\wednesday\Session 1\rory1.ASF
:FULLY-SPECIFIED
:DEGREES
230
root -2.67077 17.932 -12.9859 -171.389 -2.48806 -187.445
lowerback 1.10981 -0.235947 -8.37486
upperback 0.870595 -0.476313 -1.17806
thorax 0.331496 -0.316394 3.47811
lowerneck -15.8646 -1.89882 -0.497916
upperneck 17.1279 -2.39109 -1.60457
head 7.89616 -1.41614 -0.73292
rclavicle -3.18055e-015 -2.38542e-014
rhumerus -18.8868 20.583 -92.2208
rradius 59.7775
rwrist 0.5862
rhand -27.8597 38.8563
rfingers 7.12502
rthumb -1.25038 8.8802
lclavicle -3.18055e-015 -2.38542e-014
lhumerus -17.7299 -10.218 93.8544
lradius 47.6255
lwrist 6.48395
lhand -24.0708 10.8845
lfingers 7.12502
lthumb 2.40894 40.8506
rfemur -32.858 10.9389 9.61584
rtibia 24.031
rfoot -1.10398 -14.0528
rtoes 1.66746
lfemur 12.7203 -1.46834 -30.0738
ltibia 12.9919
lfoot 0.162887 -6.44927
ltoes -18.4222
231
root -2.66723 17.9236 -13.2062 -171.575 -2.77494 -187.256
lowerback 1.3254 -0.273637 -7.94321
upperback 0.989927 -0.528491 -1.03065
thorax 0.337783 -0.340237 3.39143
lowerneck -16.3492 -1.91236 -0.737817
upperneck 17.2604 -2.33115 -1.62614
head 8.0294 -1.40357 -0.701559
rclavicle 7.95139e-016 -3.77691e-015
rhumerus -19.1046 20.3607 -92.5527
rradius 58.4809
rwrist 1.50846
rhand -28.2931 40.3526
rfingers 7.12502
rthumb -1.66904 10.3794
lclavicle 7.95139e-016 -3.77691e-015
lhumerus -18.4847 -9.5831 93.9579
lradius 47.6218
lwrist 6.3504
lhand -24.1077 10.9055
lfingers 7.12502
lthumb 2.37336 40.8721
rfemur -32.8497 11.2134 9.8998
rtibia 25.1143
rfoot -0.0984486 -12.2235
rtoes 0.951954
lfemur 12.5317 -1.99045 -29.6909
ltibia 14.9968
lfoot 1.4854 -6.37938
ltoes -15.3447
232
root -2.66116 17.9181 -13.4287 -171.741 -2.9282 -186.829
lowerback 1.42365 -0.306761 -7.40741
upperback 1.07326 -0.556747 -0.768022
thorax 0.369645 -0.348962 3.36453
lowerneck -16.5567 -1.93791 -1.08926
upperneck 17.2966 -2.28008 -1.58372
head 8.08393 -1.39772 -0.627034
rclavicle -6.11263e-015 -3.57812e-015
rhumerus -19.3964 20.3376 -92.8119
rradius 57.1552
rwrist 2.41577
rhand -29.3293 40.8288
rfingers 7.12502
rthumb -2.66969 10.8658
lclavicle -6.11263e-015 -3.57812e-015
lhumerus -19.1851 -8.85065 94.0044
lradius 47.2626
lwrist 6.281
lhand -24.2901 11.6751
lfingers 7.12502
lthumb 2.19715 41.6435
rfemur -32.9347 11.9451 10.2625
rtibia 26.2413
rfoot 0.4131 -11.5531
rtoes 5.3264
lfemur 11.8642 -1.9501 -28.9878
ltibia 17.5466
lfoot 3.01977 -6.51031
ltoes -13.2904
233
root -2.66009 17.9098 -13.6512 -171.787 -2.91123 -186.481
lowerback 1.47298 -0.341049 -6.90074
upperback 0.985101 -0.592907 -0.626909
thorax 0.250894 -0.353339 3.22844
lowerneck -16.5106 -1.78216 -0.865236
upperneck 17.3063 -2.05351 -1.96144
head 8.07319 -1.31702 -0.762959
rclavicle 1.56046e-014 1.07344e-014
rhumerus -19.9569 20.2835 -93.3495
rradius 55.7089
rwrist 3.50653
rhand -29.1867 41.0846
rfingers 7.12502
rthumb -2.532 11.1199
lclavicle 1.56046e-014 1.07344e-014
lhumerus -20.0219 -8.23647 93.8494
lradius 46.6652
lwrist 6.37448
lhand -24.7663 13.5176
lfingers 7.12502
lthumb 1.73725 43.4903
rfemur -32.633 11.4095 11.2421
rtibia 27.4021
rfoot 0.755923 -10.7912
rtoes 6.01016
lfemur 10.7297 -1.54551 -28.3699
ltibia 20.4943
lfoot 4.21918 -7.31102
ltoes -11.8851
234
root -2.65798 17.8924 -13.8685 -171.749 -2.99373 -185.886
lowerback 1.49376 -0.337075 -6.0789
upperback 0.853188 -0.569123 -0.46118
thorax 0.0936665 -0.323958 2.94027
lowerneck -16.4267 -1.69543 -0.666936
upperneck 17.221 -1.92889 -2.25321
head 8.02553 -1.27453 -0.876097
rclavicle -1.00386e-014 -1.86858e-014
rhumerus -20.5941 19.9184 -93.805
rradius 54.2645
rwrist 4.21722
rhand -26.751 42.0042
rfingers 7.12502
rthumb -0.179642 12.0245
lclavicle -1.00386e-014 -1.86858e-014
lhumerus -21.2184 -7.79455 93.7751
lradius 46.43
lwrist 6.50823
lhand -24.0049 14.82
lfingers 7.12502
lthumb 2.47261 44.7854
rfemur -32.3343 10.9796 12.3586
rtibia 28.4883
rfoot 0.486001 -10.7324
rtoes 7.12269
lfemur 9.39779 -1.22732 -27.4044
ltibia 23.5862
lfoot 6.03027 -7.62989
ltoes -4.7391
235
root -2.64734 17.8835 -14.0829 -171.826 -3.15108 -185.002
lowerback 1.46406 -0.270359 -5.1217
upperback 0.886227 -0.449859 -0.117593
thorax 0.127785 -0.256726 2.75615
lowerneck -16.3573 -1.68405 -0.828174
upperneck 16.9696 -1.8821 -2.16811
head 7.93275 -1.24791 -0.811579
rclavicle -1.0635e-014 -3.97569e-015
rhumerus -20.9569 19.0417 -93.9006
rradius 52.6974
rwrist 5.06009
rhand -24.0671 41.4867
rfingers 7.12502
rthumb 2.41258 11.5206
lclavicle -1.0635e-014 -3.97569e-015
lhumerus -22.3147 -7.22658 93.8466
lradius 46.1734
lwrist 6.44459
lhand -22.6904 13.9678
lfingers 7.12502
lthumb 3.7421 43.9147
rfemur -31.9027 10.6415 13.7539
rtibia 29.4407
rfoot -0.166388 -10.4551
rtoes 6.5774
lfemur 7.94406 -0.85023 -26.0034
ltibia 26.7873
lfoot 8.92627 -5.84978
ltoes -0.64642
